<svg width="61" height="50" viewBox="0 0 61 50" fill="none" xmlns="http://www.w3.org/2000/svg">
<rect width="61" height="50" fill="#E7332B"/>
<path d="M34.535 15.4383H25.4651V16.8445H34.535V15.4383Z" fill="white"/>
<path d="M24.0587 16.1414H22.6685V16.6884H24.0587V16.1414Z" fill="white"/>
<path d="M37.3314 16.1414H35.9412V16.6884H37.3314V16.1414Z" fill="white"/>
<path d="M38.7376 15.4383V18.0947H34.535V16.1414H25.465V18.0947H21.2624V15.4383H18.0005V19.7975H41.9995V15.4383H38.7376Z" fill="white"/>
<path d="M18.0005 21.2037V37H41.9995V21.2037H18.0005ZM23.2456 34.3751H20.9221V32.9689H23.2456V34.3751ZM23.2456 31.3284H20.9221V29.9222H23.2456V31.3284ZM23.2456 28.2816H20.9221V26.8754H23.2456V28.2816ZM27.2035 34.3751H24.8805V32.9689H27.2035V34.3751ZM27.2035 31.3284H24.8805V29.9222H27.2035V31.3284ZM27.2035 28.2816H24.8805V26.8754H27.2035V28.2816ZM31.1615 34.3751H28.8385V32.9689H31.1615V34.3751ZM31.1615 31.3284H28.8385V29.9222H31.1615V31.3284ZM31.1615 28.2816H28.8385V26.8754H31.1615V28.2816ZM31.1615 25.2348H28.8385V23.8286H31.1615V25.2348ZM35.1195 34.3751H32.7965V32.9689H35.1195V34.3751ZM35.1195 31.3284H32.7965V29.9222H35.1195V31.3284ZM35.1195 28.2816H32.7965V26.8754H35.1195V28.2816ZM35.1195 25.2348H32.7965V23.8286H35.1195V25.2348ZM39.0779 31.3284H36.7544V29.9222H39.0779V31.3284ZM39.0779 28.2816H36.7544V26.8754H39.0779V28.2816ZM39.0779 25.2348H36.7544V23.8286H39.0779V25.2348Z" fill="white"/>
<path d="M24.0587 13H22.6685V16.6885H24.0587V13Z" fill="white"/>
<path d="M37.3314 13H35.9412V16.6885H37.3314V13Z" fill="white"/>
</svg>
